<svg width="39" height="39" viewBox="0 0 39 39" fill="none" xmlns="http://www.w3.org/2000/svg">
<rect x="1" y="1" width="37" height="37" rx="9" stroke="black" stroke-width="2"/>
<path fill-rule="evenodd" clip-rule="evenodd" d="M22.6849 9.83145C23.5598 8.81746 24.1495 7.40518 23.9881 6C22.7273 6.048 21.202 6.80538 20.298 7.81816C19.4863 8.71695 18.7776 10.1531 18.9681 11.5307C20.3745 11.6351 21.81 10.8466 22.6849 9.83145ZM25.8386 18.75C25.8738 22.3824 29.1634 23.5907 29.1998 23.6063C29.1731 23.6915 28.6744 25.3279 27.467 27.0199C26.4222 28.4815 25.3387 29.9372 23.6313 29.9684C21.9544 29.9984 21.4144 29.0156 19.496 29.0156C17.5787 29.0156 16.9793 29.937 15.3921 29.9982C13.7443 30.057 12.4884 28.4169 11.4363 26.9602C9.28369 23.9806 7.63948 18.5401 9.84794 14.8682C10.9449 13.0454 12.9046 11.8893 15.0329 11.8605C16.6505 11.8305 18.1782 12.9035 19.1671 12.9035C20.1561 12.9035 22.0126 11.6135 23.9638 11.8031C24.7805 11.8355 27.0739 12.1186 28.5458 14.1838C28.4268 14.2546 25.8095 15.714 25.8386 18.75Z" fill="black"/>
</svg>
