<svg width="66" height="57" viewBox="0 0 66 57" fill="none" xmlns="http://www.w3.org/2000/svg">
<path d="M32.49 18L42 27.48C42 27.33 42 27.15 42 27C42 24.6131 41.0518 22.3239 39.364 20.636C37.6761 18.9482 35.3869 18 33 18C32.82 18 32.67 18 32.49 18ZM19.59 20.4L24.24 25.05C24.09 25.68 24 26.31 24 27C24 29.3869 24.9482 31.6761 26.636 33.364C28.3239 35.0518 30.6131 36 33 36C33.66 36 34.32 35.91 34.95 35.76L39.6 40.41C37.59 41.4 35.37 42 33 42C29.0218 42 25.2064 40.4196 22.3934 37.6066C19.5804 34.7936 18 30.9782 18 27C18 24.63 18.6 22.41 19.59 20.4ZM3 3.81L9.84 10.65L11.19 12C6.24 15.9 2.34 21 0 27C5.19 40.17 18 49.5 33 49.5C37.65 49.5 42.09 48.6 46.14 46.98L47.43 48.24L56.19 57L60 53.19L6.81 0M33 12C36.9782 12 40.7936 13.5804 43.6066 16.3934C46.4196 19.2064 48 23.0218 48 27C48 28.92 47.61 30.78 46.92 32.46L55.71 41.25C60.21 37.5 63.81 32.58 66 27C60.81 13.83 48 4.5 33 4.5C28.8 4.5 24.78 5.25 21 6.6L27.51 13.05C29.22 12.39 31.05 12 33 12Z" fill="url(#paint0_linear_22_14)"/>
<defs>
<linearGradient id="paint0_linear_22_14" x1="-7.68862e-08" y1="28" x2="66" y2="28" gradientUnits="userSpaceOnUse">
<stop stop-color="#E49BE6"/>
<stop offset="1" stop-color="#A6C4FF"/>
</linearGradient>
</defs>
</svg>
