<svg width="60" height="40" viewBox="0 0 60 40" fill="none" xmlns="http://www.w3.org/2000/svg">
<path d="M29.9998 0C16.6665 0 5.27984 8.29333 0.666504 20C5.27984 31.7067 16.6665 40 29.9998 40C43.3332 40 54.7198 31.7067 59.3332 20C54.7198 8.29333 43.3332 0 29.9998 0ZM29.9998 33.3333C22.6398 33.3333 16.6665 27.36 16.6665 20C16.6665 12.64 22.6398 6.66667 29.9998 6.66667C37.3598 6.66667 43.3332 12.64 43.3332 20C43.3332 27.36 37.3598 33.3333 29.9998 33.3333ZM29.9998 12C25.5732 12 21.9998 15.5733 21.9998 20C21.9998 24.4267 25.5732 28 29.9998 28C34.4265 28 37.9998 24.4267 37.9998 20C37.9998 15.5733 34.4265 12 29.9998 12Z" fill="url(#paint0_linear_6_61)"/>
<defs>
<linearGradient id="paint0_linear_6_61" x1="1" y1="20" x2="59" y2="20" gradientUnits="userSpaceOnUse">
<stop stop-color="#E49BE6"/>
<stop offset="1" stop-color="#719AE9"/>
</linearGradient>
</defs>
</svg>
