<svg width="39" height="39" viewBox="0 0 39 39" fill="none" xmlns="http://www.w3.org/2000/svg">
<rect x="1" y="1" width="37" height="37" rx="9" stroke="black" stroke-width="2"/>
<g clip-path="url(#clip0_6_171)">
<path fill-rule="evenodd" clip-rule="evenodd" d="M14.8727 20C14.8727 19.4284 14.9676 18.8804 15.1371 18.3664L12.1713 16.1016C11.5932 17.2752 11.2676 18.5976 11.2676 20C11.2676 21.4012 11.5928 22.7228 12.1701 23.8956L15.1343 21.6264C14.9664 21.1148 14.8727 20.5688 14.8727 20Z" fill="#FBBC05"/>
<path fill-rule="evenodd" clip-rule="evenodd" d="M20.0797 14.8C21.3215 14.8 22.4431 15.24 23.3243 15.96L25.888 13.4C24.3257 12.04 22.3229 11.2 20.0797 11.2C16.5972 11.2 13.6041 13.1916 12.1709 16.1016L15.1367 18.3664C15.8201 16.292 17.768 14.8 20.0797 14.8Z" fill="#EB4335"/>
<path fill-rule="evenodd" clip-rule="evenodd" d="M20.0797 25.2C17.768 25.2 15.8201 23.708 15.1367 21.6336L12.1709 23.898C13.6041 26.8084 16.5972 28.8 20.0797 28.8C22.2292 28.8 24.2813 28.0368 25.8215 26.6068L23.0063 24.4304C22.2119 24.9308 21.2117 25.2 20.0797 25.2Z" fill="#34A853"/>
<path fill-rule="evenodd" clip-rule="evenodd" d="M28.492 20C28.492 19.48 28.4119 18.92 28.2917 18.4H20.0801V21.8H24.8068C24.5704 22.9592 23.9271 23.8504 23.0066 24.4304L25.8218 26.6068C27.4397 25.1052 28.492 22.8684 28.492 20Z" fill="#4285F4"/>
</g>
<defs>
<clipPath id="clip0_6_171">
<rect width="18" height="18" fill="white" transform="translate(11 11)"/>
</clipPath>
</defs>
</svg>
