<svg width="47" height="47" viewBox="0 0 47 47" fill="none" xmlns="http://www.w3.org/2000/svg">
<path d="M33.3333 29.3333H31.2267L30.48 28.6133C33.0933 25.5733 34.6667 21.6267 34.6667 17.3333C34.6667 7.76 26.9067 0 17.3333 0C7.76 0 0 7.76 0 17.3333C0 26.9067 7.76 34.6667 17.3333 34.6667C21.6267 34.6667 25.5733 33.0933 28.6133 30.48L29.3333 31.2267V33.3333L42.6667 46.64L46.64 42.6667L33.3333 29.3333ZM17.3333 29.3333C10.6933 29.3333 5.33333 23.9733 5.33333 17.3333C5.33333 10.6933 10.6933 5.33333 17.3333 5.33333C23.9733 5.33333 29.3333 10.6933 29.3333 17.3333C29.3333 23.9733 23.9733 29.3333 17.3333 29.3333Z" fill="url(#paint0_linear_6_73)"/>
<defs>
<linearGradient id="paint0_linear_6_73" x1="23.32" y1="0" x2="23.32" y2="46.64" gradientUnits="userSpaceOnUse">
<stop stop-color="#E49BE6"/>
<stop offset="1" stop-color="#A6C4FF"/>
</linearGradient>
</defs>
</svg>
