<svg width="52" height="54" viewBox="0 0 52 54" fill="none" xmlns="http://www.w3.org/2000/svg">
<path d="M45.8134 29.6133C45.9201 28.76 46.0001 27.9067 46.0001 27C46.0001 26.0933 45.9201 25.24 45.8134 24.3867L51.4401 19.9867C51.9467 19.5867 52.0801 18.8667 51.7601 18.28L46.4267 9.05333C46.1067 8.46666 45.3867 8.25333 44.8001 8.46666L38.1601 11.1333C36.7734 10.0667 35.2801 9.18666 33.6534 8.52L32.6401 1.45333C32.5601 0.813328 32.0001 0.333328 31.3334 0.333328H20.6667C20.0001 0.333328 19.4401 0.813328 19.3601 1.45333L18.3467 8.52C16.7201 9.18666 15.2267 10.0933 13.8401 11.1333L7.20006 8.46666C6.58673 8.22666 5.89339 8.46666 5.57339 9.05333L0.24006 18.28C-0.106607 18.8667 0.0533936 19.5867 0.56006 19.9867L6.18673 24.3867C6.08006 25.24 6.00006 26.12 6.00006 27C6.00006 27.88 6.08006 28.76 6.18673 29.6133L0.56006 34.0133C0.0533936 34.4133 -0.0799401 35.1333 0.24006 35.72L5.57339 44.9467C5.89339 45.5333 6.61339 45.7467 7.20006 45.5333L13.8401 42.8667C15.2267 43.9333 16.7201 44.8133 18.3467 45.48L19.3601 52.5467C19.4401 53.1867 20.0001 53.6667 20.6667 53.6667H31.3334C32.0001 53.6667 32.5601 53.1867 32.6401 52.5467L33.6534 45.48C35.2801 44.8133 36.7734 43.9067 38.1601 42.8667L44.8001 45.5333C45.4134 45.7733 46.1067 45.5333 46.4267 44.9467L51.7601 35.72C52.0801 35.1333 51.9467 34.4133 51.4401 34.0133L45.8134 29.6133ZM26.0001 36.3333C20.8534 36.3333 16.6667 32.1467 16.6667 27C16.6667 21.8533 20.8534 17.6667 26.0001 17.6667C31.1467 17.6667 35.3334 21.8533 35.3334 27C35.3334 32.1467 31.1467 36.3333 26.0001 36.3333Z" fill="url(#paint0_linear_6_69)"/>
<defs>
<linearGradient id="paint0_linear_6_69" x1="25.9942" y1="0.333328" x2="25.9942" y2="53.6667" gradientUnits="userSpaceOnUse">
<stop stop-color="#E49BE6"/>
<stop offset="1" stop-color="#A6C4FF"/>
</linearGradient>
</defs>
</svg>
